<svg width="627" height="629" viewBox="0 0 627 629" fill="none" xmlns="http://www.w3.org/2000/svg">
<rect width="627" height="629" fill="#003C5E"/>
<g clip-path="url(#clip0_290_2)">
<path d="M285.711 447.772C257.264 426.723 228.946 407.878 203.133 386.026C182.201 368.301 181.904 336.12 198.902 313.726C214.471 293.181 244.719 286.738 267.099 299.046C279.513 305.882 279.699 306.76 271.051 318.19C269.196 320.581 267.34 322.841 264.909 325.754C262.515 324.428 260.307 323.252 258.136 322.019C243.29 313.409 226.385 316.752 217.014 330.162C214.685 333.4 213.02 337.072 212.114 340.964C211.208 344.856 211.081 348.89 211.739 352.832C212.397 356.774 213.827 360.545 215.946 363.925C218.066 367.305 220.832 370.228 224.084 372.522C246.185 388.995 268.62 404.927 290.889 421.083C293.579 422.95 296.066 425.285 299.313 427.937C295.064 434.213 291.074 440.021 285.711 447.772Z" fill="#F7F3EA"/>
<path d="M310.058 413.873L290.926 399.454C306.755 377.284 322.064 355.824 337.318 334.383C341.289 328.78 345.056 323.177 349.491 318.022C369.366 295.161 405.254 293.741 427.43 314.884C449.104 335.429 450.607 369.72 429.972 390.825L413.791 379.432C416.184 369.757 420.026 361.185 420.026 352.612C420.026 339.146 410.896 329.471 397.999 325.642C385.825 322.037 373.541 326.015 365.153 337.371C350.308 357.449 336.019 377.882 321.47 398.147C318.019 403.003 314.456 407.822 310.058 413.873Z" fill="#F7F3EA"/>
<path d="M334.887 453.936C313.862 482.194 294.953 510.098 273.427 535.779C255.835 556.772 224.307 558.192 202.577 542.017C192.241 534.229 184.942 523.043 181.945 510.403C178.949 497.762 180.445 484.465 186.173 472.818C192.927 459.184 194.393 458.848 206.585 468.224C208.664 469.811 210.556 471.623 213.043 473.827C211.187 477.562 209.09 481.13 207.476 484.809C204.34 491.566 203.767 499.244 205.866 506.396C207.965 513.548 212.59 519.681 218.87 523.639C225.14 527.64 232.669 529.14 239.981 527.844C247.293 526.548 253.86 522.551 258.396 516.635C274.132 495.866 289.293 474.63 304.695 453.581L314.883 439.685L334.887 453.936Z" fill="#F7F3EA"/>
<path d="M359.066 528.234C369.05 530.494 378.031 534.267 386.901 534.08C399.186 533.837 409.318 523.228 412.064 511.443C413.693 505.357 413.381 498.911 411.174 493.013C408.966 487.115 404.974 482.063 399.761 478.571C378.365 463.032 356.932 447.586 335.536 432.046C332.548 429.88 329.802 427.377 327.334 425.36C327.52 423.642 327.334 422.764 327.724 422.185C338.672 404.292 338.728 404.217 355.559 416.47C375.749 431.075 396.124 445.457 415.906 460.622C425.258 467.551 432.123 477.347 435.47 488.539C438.816 499.731 438.463 511.714 434.463 522.687C430.379 533.786 422.873 543.279 413.042 549.775C403.212 556.272 391.574 559.431 379.831 558.79C374.943 558.605 370.109 557.692 365.487 556.082C344.221 548.499 343.386 543.232 359.066 528.234Z" fill="#F7F3EA"/>
<path d="M269.697 353.976C285.043 332.777 299.833 312.774 314.085 292.341C318.984 285.337 322.602 282.629 330.897 288.736C339.192 294.844 339.805 298.729 333.866 306.704C315.829 330.984 298.367 355.582 280.961 380.292C276.841 386.156 273.334 387.464 267.359 382.72C257.616 375.006 247.336 367.965 237.334 360.587C231.062 355.974 228.148 349.979 232.973 343.049C238.095 335.728 244.794 336.214 251.641 341.182C257.078 345.309 262.682 349.082 269.697 353.976Z" fill="#F7F3EA"/>
<path d="M385.101 383.168C406.497 398.8 426.334 413.929 446.877 427.993C455.246 433.727 452.926 438.116 448.473 444.429C444.019 450.742 440.345 453.954 432.421 447.959C408.631 429.935 384.285 412.64 359.938 395.364C353.48 390.769 351.643 386.511 356.969 379.731C364.392 370.206 371.313 360.213 378.532 350.483C383.171 344.244 389.054 341.144 395.994 346.299C402.934 351.454 402.34 357.823 397.98 364.36C394.046 370.28 389.944 376.126 385.101 383.168Z" fill="#F7F3EA"/>
<path d="M355.003 498.854C340.157 519.399 326.11 538.917 312.007 558.621C305.141 568.184 292.503 567.12 287.883 556.175C286.992 554.083 288.235 550.235 289.738 548.106C307.924 522.462 326.166 496.875 344.964 471.698C346.652 469.438 353.388 468.261 355.764 469.83C366.898 476.927 377.382 485.033 387.923 493.027C394.232 497.808 396.366 504.065 391.059 510.733C385.752 517.401 379.479 516.766 373.077 512.003C367.343 507.633 361.535 503.542 355.003 498.854Z" fill="#F7F3EA"/>
<path d="M240.544 468.597C220.855 454.141 201.742 440.133 182.684 426.069C171.717 418.001 171.68 410.829 183.092 402.798C184.948 401.434 189.698 401.77 191.758 403.246C217.367 421.363 242.827 439.666 267.841 458.493C270.012 460.118 270.996 466.916 269.474 469.401C262.701 480.308 255.018 490.692 247.206 500.946C242.697 506.904 236.462 510.285 229.54 505.261C222.117 499.919 223.49 492.99 228.148 486.266C232.119 480.7 235.998 475.153 240.544 468.597Z" fill="#F7F3EA"/>
</g>
<path d="M521.993 565.047H510.914V561.075C510.914 514.877 510.914 468.679 510.914 422.481C511.087 377.856 496.105 334.488 468.407 299.442C440.709 264.396 401.929 239.738 358.384 229.486C278.926 210.537 194.917 244.03 149.548 312.754C130.064 342.261 118.918 374.599 116.61 409.866C116.303 414.568 116.079 419.292 116.079 424.024C116.034 469.466 116.034 514.919 116.079 560.382V565.039H105V64H116.079V68.3143C116.079 93.897 116.079 119.48 116.079 145.062C116.079 188.69 145.118 224.277 187.985 232.727C204.219 235.931 220.176 234.217 235.566 228.092C268.571 214.97 302.802 210.06 337.974 214.553C399.779 222.451 448.727 252.234 484.93 302.754C495.673 317.738 503.861 334.124 510.719 351.388V198.093H522L521.993 565.047Z" fill="#F7F3EA"/>
<defs>
<clipPath id="clip0_290_2">
<rect width="278" height="279.616" fill="white" transform="translate(174.5 285.43)"/>
</clipPath>
</defs>
</svg>
